RSLDJ_XZ.mot
version=1
datacolumns 20
datarows 30
range 1.520000 1.810000
inDegrees=yes
endheader
time	pelvis_tilt	pelvis_list	pelvis_rotation	hip_flexion_r	hip_adduction_r	hip_rotation_r	knee_angle_r	ankle_angle_r	hip_flexion_l	hip_adduction_l	hip_rotation_l	knee_angle_l	ankle_angle_l	pelvis_tx	pelvis_ty	pelvis_tz	lumbar_bending	lumbar_rotation	lumbar_extension
1.520000	-14.858425	18.860753	5.103262	23.432047	-13.251656	-9.145938	-4.631064	-14.050636	89.022178	5.850503	-13.827226	-123.417283	10.080280	0.400438	1.155548	0.317801	-0.881830	-16.935223	0.667831
1.530000	-14.985139	18.766981	5.282933	23.986876	-13.292820	-8.974217	-5.344604	-13.279220	88.897270	6.116564	-13.615082	-122.982059	10.071292	0.402311	1.149245	0.316632	-1.177745	-16.623162	0.545037
1.540000	-15.120252	18.732438	5.395280	24.554493	-13.375131	-8.636111	-6.078428	-12.537437	88.783991	6.339608	-13.465419	-122.682068	10.149456	0.404205	1.141932	0.315429	-1.424332	-16.388798	0.414513
1.550000	-15.238208	18.761643	5.445552	25.110218	-13.506831	-8.169340	-6.832149	-11.836948	88.660036	6.534333	-13.409667	-122.508989	10.296852	0.406113	1.133569	0.314191	-1.648360	-16.234124	0.264097
1.560000	-15.320036	18.852005	5.448847	25.635853	-13.696776	-7.630040	-7.618118	-11.202429	88.512509	6.721700	-13.450957	-122.452871	10.479822	0.408034	1.124118	0.312913	-1.875709	-16.151966	0.091832
1.570000	-15.362609	18.989417	5.427246	26.127502	-13.946146	-7.083870	-8.456073	-10.657047	88.347045	6.921611	-13.564417	-122.504898	10.659424	0.409975	1.113553	0.311585	-2.124926	-16.124011	-0.088020
1.580000	-15.373836	19.147993	5.401140	26.590514	-14.241338	-6.590139	-9.368259	-10.201030	88.181505	7.144643	-13.703248	-122.658349	10.802552	0.411943	1.101871	0.310187	-2.401918	-16.122022	-0.253749
1.590000	-15.362250	19.290703	5.378306	27.031830	-14.546441	-6.183863	-10.377234	-9.794384	88.033502	7.383734	-13.806004	-122.908508	10.894083	0.413931	1.089098	0.308701	-2.695837	-16.109086	-0.390168
1.600000	-15.332488	19.370632	5.348001	27.461051	-14.798762	-5.870599	-11.508348	-9.343902	87.913711	7.610252	-13.811798	-123.250428	10.941127	0.415918	1.075296	0.307106	-2.978395	-16.040537	-0.494968
1.610000	-15.287217	19.335395	5.280322	27.900409	-14.910889	-5.633426	-12.796554	-8.704599	87.825903	7.774886	-13.678282	-123.674258	10.965036	0.417873	1.060573	0.305396	-3.205566	-15.866880	-0.576104
1.620000	-15.232328	19.134309	5.129996	28.396905	-14.779524	-5.441365	-14.292640	-7.709198	87.770776	7.812844	-13.389074	-124.159656	10.986959	0.419753	1.045094	0.303582	-3.321638	-15.539003	-0.644006
1.630000	-15.183261	18.725547	4.846878	29.028766	-14.301114	-5.254439	-16.064159	-6.222720	87.751413	7.655573	-12.945526	-124.671035	11.017268	0.421511	1.029081	0.301695	-3.269015	-15.014249	-0.702178
1.640000	-15.167489	18.084943	4.390950	29.899076	-13.396117	-5.028878	-18.190101	-4.198074	87.774717	7.248808	-12.354294	-125.154782	11.054283	0.423093	1.012815	0.299782	-3.003153	-14.265508	-0.741947
1.650000	-15.219315	17.218892	3.747468	31.113633	-12.041077	-4.727404	-20.748469	-1.704741	87.844967	6.573967	-11.625241	-125.539465	11.090702	0.424443	0.996613	0.297902	-2.508937	-13.295278	-0.745200
1.660000	-15.367931	16.174727	2.940318	32.747420	-10.297728	-4.332925	-23.795216	1.080686	87.952555	5.668427	-10.780334	-125.741291	11.121780	0.425513	0.980800	0.296114	-1.815421	-12.147160	-0.694710
1.670000	-15.622906	15.037701	2.038184	34.811853	-8.321389	-3.858711	-27.337212	3.918934	88.063919	4.633848	-9.865230	-125.676269	11.148392	0.426273	0.965678	0.294469	-1.001688	-10.903456	-0.588140
1.680000	-15.965573	13.910385	1.146627	37.238800	-6.336656	-3.347822	-31.308335	6.573058	88.120643	3.620844	-8.948732	-125.277205	11.174367	0.426729	0.951502	0.292999	-0.185344	-9.665080	-0.445399
1.690000	-16.353092	12.881913	0.384115	39.889542	-4.583082	-2.861342	-35.561521	8.869303	88.052632	2.789463	-8.102274	-124.509317	11.197260	0.426932	0.938462	0.291706	0.506447	-8.521518	-0.301994
1.700000	-16.733442	12.002761	-0.152557	42.583985	-3.249393	-2.463060	-39.885369	10.729260	87.800668	2.258788	-7.373360	-123.378245	11.198309	0.426969	0.926675	0.290568	0.973862	-7.526147	-0.192270
1.710000	-17.063401	11.276493	-0.420411	45.138786	-2.422025	-2.207164	-44.041934	12.165275	87.337165	2.066520	-6.770801	-121.928861	11.146178	0.426936	0.916183	0.289553	1.175092	-6.687977	-0.132857
1.720000	-17.320989	10.668083	-0.445433	47.402593	-2.067249	-2.130196	-47.811840	13.251739	86.675418	2.156014	-6.267670	-120.236587	11.013001	0.426915	0.906963	0.288632	1.138739	-5.979500	-0.115115
1.730000	-17.508095	10.121761	-0.312000	49.279603	-2.052627	-2.246168	-51.031089	14.088233	85.863890	2.397682	-5.818594	-118.393180	10.788586	0.426948	0.898942	0.287781	0.951990	-5.353902	-0.109321
1.740000	-17.643583	9.581226	-0.129997	50.736148	-2.197870	-2.542849	-53.610353	14.765059	84.968100	2.636728	-5.382016	-116.490285	10.486313	0.427046	0.892031	0.286992	0.728497	-4.764362	-0.078038
1.750000	-17.750743	9.006893	0.003813	51.791286	-2.332062	-2.978831	-55.536731	15.339896	84.047863	2.744988	-4.937336	-114.605353	10.140104	0.427199	0.886145	0.286274	0.571111	-4.179791	0.007268
1.760000	-17.844687	8.385356	0.032413	52.497180	-2.334260	-3.485685	-56.861978	15.830753	83.138918	2.654865	-4.489531	-112.793582	9.795641	0.427393	0.881220	0.285661	0.545713	-3.592225	0.153303
1.770000	-17.927480	7.728344	-0.053008	52.919425	-2.148510	-3.980973	-57.681243	16.225807	82.247668	2.367300	-4.058949	-111.086178	9.501750	0.427616	0.877217	0.285203	0.672181	-3.014041	0.343566
1.780000	-17.993739	7.064365	-0.219760	53.124585	-1.778470	-4.389650	-58.107451	16.504705	81.360550	1.938474	-3.664112	-109.492547	9.303762	0.427864	0.874115	0.284954	0.929585	-2.469137	0.550057
1.790000	-18.036381	6.428515	-0.410724	53.170110	-1.270464	-4.663557	-58.247775	16.659190	80.455830	1.454706	-3.310403	-108.004797	9.236724	0.428138	0.871905	0.284954	1.270037	-1.983854	0.745431
1.800000	-18.046258	5.852197	-0.564272	53.093997	-0.691625	-4.791809	-58.187549	16.703743	79.510300	1.005414	-2.990477	-106.604669	9.318054	0.428432	0.870581	0.285213	1.634660	-1.578823	0.907104
1.810000	-18.012211	5.354925	-0.630306	52.911463	-0.108313	-4.799252	-57.982878	16.674201	78.505409	0.660753	-2.692985	-105.271462	9.542904	0.428727	0.870124	0.285708	1.967577	-1.263184	1.018699
